<?xml version="1.0" standalone="no"?>
<!DOCTYPE svg PUBLIC "-//W3C//DTD SVG 20010904//EN"
 "http://www.w3.org/TR/2001/REC-SVG-20010904/DTD/svg10.dtd">
<svg version="1.0" xmlns="http://www.w3.org/2000/svg"
 width="512.000000pt" height="512.000000pt" viewBox="0 0 512.000000 512.000000"
 preserveAspectRatio="xMidYMid meet">

<g transform="translate(0.000000,512.000000) scale(0.100000,-0.100000)"
fill="#000000" stroke="none">
<path d="M2320 5080 c-588 -57 -1138 -316 -1556 -734 -399 -399 -643 -897
-726 -1481 -16 -117 -16 -503 0 -620 42 -296 119 -550 241 -800 130 -264 280
-475 485 -681 399 -399 899 -644 1481 -726 117 -16 503 -16 620 0 504 71 956
270 1330 585 342 288 621 701 764 1132 91 276 126 493 126 800 0 307 -35 524
-126 800 -302 909 -1086 1563 -2049 1710 -126 19 -458 27 -590 15z m373 -895
c413 -54 679 -252 785 -585 56 -174 56 -168 62 -1105 4 -586 9 -880 17 -901
43 -121 114 -174 245 -182 86 -5 156 12 220 54 21 13 39 24 42 24 10 0 -18
-91 -46 -150 -37 -77 -138 -181 -215 -223 -165 -88 -430 -88 -596 0 -124 66
-230 215 -261 366 -8 38 -17 71 -19 73 -2 3 -21 -25 -42 -61 -109 -187 -335
-351 -572 -417 -67 -19 -104 -22 -258 -22 -212 1 -281 15 -435 90 -168 83
-298 238 -346 414 -26 96 -24 298 5 405 93 349 382 582 885 715 96 25 735 170
752 170 3 0 4 152 1 338 -5 380 -16 461 -81 597 -62 131 -161 201 -328 232
-196 35 -389 -12 -509 -124 -157 -146 -142 -398 32 -577 57 -57 60 -63 55 -98
-17 -109 -101 -218 -204 -266 -52 -25 -68 -27 -177 -27 -111 0 -124 2 -176 28
-236 116 -296 475 -126 762 78 133 262 288 430 365 116 53 267 93 422 113 78
10 335 6 438 -8z"/>
<path d="M2659 2605 c-350 -90 -481 -149 -605 -270 -136 -133 -195 -362 -150
-576 27 -128 112 -246 216 -303 137 -74 355 -71 517 9 85 42 168 120 236 221
l47 72 0 456 c0 251 -3 456 -7 455 -5 0 -119 -29 -254 -64z"/>
</g>
</svg>
